<svg width="150" height="26" viewBox="0 0 150 26" fill="none" xmlns="http://www.w3.org/2000/svg">
<g clip-path="url(#clip0_44_331)">
<path fill-rule="evenodd" clip-rule="evenodd" d="M133.559 0.93769C133.152 2.55385 132.796 4.069 132.516 5.45789L135.545 14.4983L140.125 0.93769H133.559ZM13.59 1.569C11.9612 0.811427 10.1797 0.457892 8.37282 0.508397C6.9731 0.483144 5.57337 0.710417 4.24999 1.19022C3.15565 1.569 2.18857 2.20032 1.45053 3.0589C0.81429 3.76597 0.407096 4.62456 0.228949 5.53365C0.0508014 6.82153 -9.77768e-05 8.10941 0.0253518 9.39729V16.3417C-0.050997 18.1347 0.17805 19.9023 0.687042 21.6195C1.19603 22.8316 2.16312 23.8165 3.41015 24.3468C5.03892 25.0539 6.8204 25.4074 8.60187 25.3316C10.3833 25.3821 12.1394 24.9781 13.6918 24.17C14.8625 23.5892 15.8296 22.6296 16.364 21.4427C16.8475 19.7508 17.0511 17.9831 16.9748 16.2155V15.2811H9.798V18.2862C9.8489 19.1195 9.77255 19.9528 9.54351 20.7609C9.33991 21.1397 8.93272 21.367 8.50007 21.2912C8.06743 21.3417 7.63479 21.1397 7.43119 20.7609C7.22759 20.0286 7.15124 19.271 7.20214 18.4882V7.42759C7.15124 6.64476 7.22759 5.83668 7.43119 5.0791C7.58389 4.72557 7.96563 4.5488 8.55097 4.5488C8.95816 4.4983 9.33991 4.67506 9.56896 5.00335C9.77255 5.73567 9.8489 6.49325 9.798 7.27607V11.4175H16.9748V9.14476C17.0766 7.47809 16.873 5.81143 16.364 4.22052C15.7787 3.03365 14.8116 2.07405 13.59 1.569ZM43.6714 0.962942H36.5201V24.7761H48.0233V20.0033H43.6714V0.962942ZM56.8798 0.962942H49.7539V24.7761H61.2317V20.0033H56.8798V0.962942ZM20.8431 0.887185L17.1784 24.7761H23.9225L26.2384 6.06395L27.5109 16.3417H26.0349L25.5768 20.3316H27.9945L28.5544 24.8013H35.2731L31.2011 0.887185H20.8431ZM63.4203 7.30133C63.2167 7.02355 62.9368 6.79628 62.6059 6.64476C62.2496 6.49325 61.8679 6.41749 61.4862 6.44274C61.079 6.44274 60.6972 6.5185 60.3409 6.67001C60.0355 6.82153 59.781 7.0488 59.5774 7.32658C59.3738 7.60436 59.272 7.93264 59.2211 8.26092C59.2211 8.61446 59.1702 9.19527 59.1702 10.0286V11.4175C59.1702 12.2508 59.1702 12.8569 59.2211 13.1852C59.272 13.5134 59.3993 13.8417 59.5774 14.1195C59.781 14.3973 60.061 14.6246 60.3918 14.7508C60.7481 14.9023 61.1299 14.9781 61.5116 14.9781C61.9188 14.9781 62.3005 14.9023 62.6568 14.7508C62.9622 14.5993 63.2422 14.372 63.4203 14.0943C63.6239 13.8165 63.7257 13.4882 63.7766 13.1599C63.7766 12.8316 63.8275 12.2256 63.8275 11.4175V10.0286C63.8275 9.19527 63.8275 8.58921 63.7766 8.26092C63.7512 7.90739 63.6239 7.5791 63.4203 7.30133ZM61.817 12.4781C61.8425 12.7811 61.817 13.0842 61.7661 13.3872C61.7407 13.5134 61.6134 13.5892 61.5116 13.5892C61.4098 13.5892 61.2826 13.5387 61.2571 13.4124C61.2062 13.1347 61.1808 12.8316 61.1808 12.5539V8.71547C61.1553 8.46294 61.1808 8.21042 61.2571 7.95789C61.308 7.88213 61.4098 7.83163 61.5116 7.83163C61.6134 7.80638 61.7152 7.88213 61.7661 7.98314C61.817 8.23567 61.8425 8.48819 61.817 8.74072V12.4781ZM144.757 19.3468V19.271C145.597 19.1195 146.182 18.3872 146.182 17.5539C146.233 16.973 145.979 16.4427 145.521 16.0892C144.834 15.6852 144.045 15.5084 143.23 15.5589C142.543 15.5589 141.856 15.6094 141.169 15.7357V22.8064H142.365V19.8013H143.129C143.867 19.7003 144.554 20.2306 144.63 20.9629C144.63 20.9882 144.63 21.0135 144.63 21.0387C144.681 21.67 144.859 22.2761 145.114 22.8569H146.335C146.081 22.3013 145.928 21.7205 145.877 21.1145C145.826 20.0033 145.444 19.4478 144.757 19.3468ZM143.205 18.9175H142.416V16.4932C142.696 16.4427 142.976 16.4427 143.256 16.4427C144.554 16.4427 145.037 17.0488 145.037 17.6801C144.961 18.5387 144.146 18.8922 143.205 18.9175ZM143.612 12.7811C140.075 12.7559 137.173 15.5842 137.173 19.1195C137.173 22.6549 139.998 25.4831 143.536 25.5084C147.073 25.5337 149.974 22.6801 149.974 19.17C149.974 19.1448 149.974 19.1195 149.974 19.0943C149.974 15.5842 147.099 12.7306 143.561 12.7306L143.612 12.7811ZM143.612 24.5236C140.685 24.473 138.344 22.0741 138.395 19.17V19.1448C138.344 16.2407 140.66 13.8417 143.587 13.7912C146.513 13.8417 148.855 16.266 148.778 19.17C148.855 22.0488 146.564 24.4478 143.663 24.5236C143.637 24.4983 143.612 24.4983 143.612 24.5236ZM132.058 7.62961L131.676 6.44274L129.844 0.93769H123.303L128.317 16.266V24.9528H134.934V16.266L132.058 7.62961ZM64.4892 14.8266H66.3979V11.3922H67.5941V9.82658H66.3979V8.26092H67.7213V6.61951H64.4892V14.8266ZM85.2815 2.73062C84.4926 2.02355 83.5255 1.569 82.4821 1.36698C80.1662 1.01345 77.8248 0.887185 75.458 0.962942H70.0881V24.8013H79.1482C80.4461 24.8266 81.7186 24.7508 82.9911 24.5488C83.7546 24.4225 84.4926 24.1195 85.1288 23.6902C85.7142 23.2862 86.1468 22.6801 86.3504 21.9983C86.6558 20.5842 86.7576 19.1448 86.7067 17.7054V9.37203C86.7576 7.85688 86.6813 6.34173 86.4777 4.85183C86.2995 4.04375 85.8923 3.28618 85.2815 2.73062ZM79.5299 17.2508C79.5299 18.8417 79.4027 19.8013 79.1736 20.1801C78.9446 20.5337 78.3084 20.7104 77.2649 20.7104V5.0286C77.7994 4.97809 78.3593 5.05385 78.8682 5.23062C79.1482 5.35688 79.3518 5.60941 79.4027 5.91244C79.5045 6.59426 79.5554 7.30133 79.5299 7.98314V17.2508ZM106.328 5.71042H110.578V24.8013H117.755V5.71042H122.005V0.93769H106.328V5.71042ZM97.6755 18.5135C97.7264 19.271 97.6501 20.0286 97.4974 20.7862C97.3447 21.1145 96.9884 21.3165 96.6321 21.266C96.3012 21.2912 95.9958 21.1145 95.8686 20.8367C95.6904 20.1801 95.6395 19.5236 95.6904 18.8417V0.962942H88.5136V15.0539C88.4882 16.8215 88.5391 18.564 88.6918 20.3316C88.819 21.2155 89.2008 22.0488 89.7861 22.7306C90.5496 23.5892 91.5167 24.2205 92.5856 24.5741C93.9853 25.0791 95.4359 25.3064 96.912 25.2811C98.2099 25.3064 99.5333 25.1044 100.755 24.6751C101.773 24.3215 102.664 23.7155 103.376 22.9074C103.987 22.2761 104.394 21.4932 104.572 20.6347C104.75 19.372 104.801 18.1094 104.776 16.8215V0.962942H97.6501L97.6755 18.5135Z" fill="white"/>
</g>
<defs>
<clipPath id="clip0_44_331">
<rect width="150" height="25" fill="white" transform="translate(0 0.508301)"/>
</clipPath>
</defs>
</svg>
