<svg width="158" height="26" viewBox="0 0 158 26" fill="none" xmlns="http://www.w3.org/2000/svg">
<path d="M11.805 2.22602H29.073L26.427 6.45674L9.1629 6.467L11.8052 2.22602H11.805ZM24.309 23.4297H19.2575V23.435H2.43945L7.75807 14.9482H3.85405L6.51047 10.7062H22.7758L20.1154 14.9482H12.8236L10.1291 19.1942H21.8715L32.6052 2.0791L45.9652 23.4299H40.9238L38.2696 19.1922H30.371L33.0275 14.9421H35.6155L32.6054 10.1227L24.309 23.4299V23.4297Z" fill="white"/>
<path d="M153.408 3.37722H152.619V5.07478H152.219V3.37722H151.43V3.02563H153.408V3.37722Z" fill="white"/>
<path d="M156.129 5.07494H155.762V3.80887C155.762 3.75513 155.762 3.68932 155.776 3.58608C155.739 3.66819 155.73 3.73863 155.678 3.80887L155.033 4.81472H154.968L154.309 3.79236C154.272 3.73601 154.23 3.65632 154.188 3.58588C154.188 3.66799 154.23 3.73601 154.23 3.80866V5.07474H153.886V3.02539H154.23L155.019 4.26349L155.822 3.02539H156.129V5.07474V5.07494Z" fill="white"/>
<path d="M63.2705 18.9915C63.2705 20.2459 62.8389 21.3126 61.9845 22.1802C61.1161 23.0617 60.0574 23.5046 58.8365 23.5046H53.5711C52.3268 23.5046 51.2773 23.0804 50.4416 22.2387C49.6013 21.3945 49.188 20.3512 49.188 19.069V16.9659H52.4243L52.8977 18.9141C53.1113 19.7158 53.6591 20.1308 54.5554 20.1308H58.1165C58.5623 20.1308 58.92 19.9692 59.2031 19.6313C59.4678 19.3103 59.6023 18.881 59.6023 18.3934V16.0772C59.6023 14.9423 59.1053 14.3633 58.1165 14.3633H53.6454C52.4243 14.3633 51.3608 13.9321 50.4786 13.0504C49.6244 12.1667 49.188 11.1045 49.188 9.8573V6.79988C49.188 5.57385 49.6246 4.5211 50.4786 3.64646C51.361 2.76517 52.4243 2.32886 53.6454 2.32886H58.8365C60.0574 2.32886 61.0976 2.75088 61.9518 3.59031C62.8015 4.43657 63.215 5.47745 63.215 6.74614V8.64737H60.0018L59.5142 6.92445C59.2633 6.10395 58.6972 5.70064 57.8752 5.70064H54.3649C53.9098 5.70064 53.5475 5.86486 53.2785 6.19753C52.9906 6.5304 52.8651 6.94317 52.8651 7.45193V9.23382C52.8651 10.3451 53.362 10.9008 54.3649 10.9008H58.8365C60.0436 10.9008 61.093 11.3464 61.966 12.2395C62.8387 13.1329 63.2705 14.1832 63.2705 15.4096V18.9917V18.9915Z" fill="white"/>
<path d="M76.369 5.74761H71.3172V12.3171H76.369C76.8006 12.3171 77.1629 12.1505 77.4369 11.827C77.7155 11.4918 77.8593 11.0862 77.8593 10.5751V7.48502C77.8593 6.96901 77.7155 6.56611 77.4369 6.23766C77.1629 5.90701 76.8008 5.74761 76.369 5.74761ZM81.5695 11.2384C81.5695 12.4833 81.1329 13.5407 80.2693 14.4153C79.3823 15.2898 78.3192 15.7329 77.0932 15.7329H71.3172V23.5049H67.6121V2.32935H77.0932C78.3192 2.32935 79.3823 2.76566 80.2693 3.64694C81.1329 4.51213 81.5695 5.56951 81.5695 6.78869V11.2384Z" fill="white"/>
<path d="M112.414 5.74761H107.562V11.8059H112.414C112.841 11.8059 113.198 11.6465 113.463 11.337C113.732 11.011 113.862 10.5984 113.862 10.0945V7.48523C113.862 6.98109 113.732 6.56631 113.463 6.23786C113.198 5.90721 112.841 5.74782 112.414 5.74782V5.74761ZM114.494 23.5049L111.076 15.2171H107.562V23.5049H103.852V2.32935H113.119C114.364 2.32935 115.413 2.76566 116.277 3.64694C117.14 4.51213 117.581 5.57434 117.581 6.78869V10.4813C117.581 11.44 117.317 12.3171 116.797 13.0885C116.249 13.8526 115.562 14.3966 114.754 14.7555L118.431 23.5051H114.494V23.5049Z" fill="white"/>
<path d="M134.338 5.74761H128.957V23.5049H125.247V5.74761H119.917V2.32935H134.338V5.74761Z" fill="white"/>
<path d="M151.142 18.9915C151.142 20.2459 150.71 21.3126 149.847 22.1802C148.974 23.0617 147.92 23.5046 146.675 23.5046H141.428C140.18 23.5046 139.144 23.0804 138.295 22.2387C137.459 21.3945 137.036 20.3512 137.036 19.069V16.9659H140.263L140.751 18.9141C140.978 19.7158 141.517 20.1308 142.409 20.1308H145.965C146.416 20.1308 146.782 19.9692 147.056 19.6313C147.321 19.3103 147.456 18.881 147.456 18.3934V16.0772C147.456 14.9423 146.964 14.3633 145.965 14.3633H141.499C140.264 14.3633 139.205 13.9321 138.346 13.0504C137.487 12.1667 137.037 11.1045 137.037 9.8573V6.79988C137.037 5.57385 137.487 4.5211 138.346 3.64646C139.205 2.76517 140.264 2.32886 141.499 2.32886H146.676C147.92 2.32886 148.951 2.75088 149.805 3.59031C150.646 4.43657 151.077 5.47745 151.077 6.74614V8.64737H147.855L147.368 6.92445C147.108 6.10395 146.56 5.70064 145.733 5.70064H142.214C141.768 5.70064 141.392 5.86486 141.127 6.19753C140.858 6.5304 140.719 6.94317 140.719 7.45193V9.23382C140.719 10.3451 141.225 10.9008 142.214 10.9008H146.676C147.902 10.9008 148.947 11.3464 149.81 12.2395C150.711 13.1329 151.142 14.1832 151.142 15.4096V18.9917L151.142 18.9915Z" fill="white"/>
<path d="M99.3338 18.959C99.3338 20.246 98.9114 21.3127 98.0199 22.1805C97.1421 23.0619 96.1069 23.5049 94.8627 23.5049H89.8525C88.6035 23.5049 87.5496 23.0619 86.6768 22.1805C85.8086 21.3129 85.3674 20.246 85.3674 18.959V6.78869C85.3674 5.57454 85.8086 4.51233 86.6768 3.64694C87.5496 2.76566 88.6037 2.32935 89.8525 2.32935H94.8627C96.1069 2.32935 97.1423 2.76566 98.0199 3.63286C98.9114 4.48617 99.3338 5.55985 99.3338 6.78829V18.9586V18.959ZM94.1427 5.74761H90.5908C90.1265 5.74761 89.769 5.90701 89.4905 6.23766C89.2258 6.56611 89.0959 6.98089 89.0959 7.48502V18.34C89.0959 18.832 89.226 19.2424 89.4905 19.573C89.769 19.9154 90.1265 20.0913 90.5908 20.0913H94.1427C94.57 20.0913 94.9322 19.9156 95.206 19.573C95.494 19.2424 95.6332 18.8322 95.6332 18.34V7.48502C95.6332 6.98089 95.494 6.56611 95.206 6.23766C94.9322 5.90701 94.57 5.74761 94.1427 5.74761Z" fill="white"/>
</svg>
