<svg width="537" height="537" viewBox="0 0 537 537" fill="none" xmlns="http://www.w3.org/2000/svg">
<g filter="url(#filter0_f_66_675)">
<circle cx="268.5" cy="268.5" r="68.5" fill="#002D8E"/>
</g>
<circle cx="266" cy="271" r="32" fill="#1A3B9C"/>
<path d="M251.04 278.96C250.8 278.853 250.493 278.76 250.12 278.68C249.747 278.627 249.413 278.56 249.12 278.48C248.533 278.267 248.107 277.893 247.84 277.36C247.573 276.8 247.44 276.133 247.44 275.36C247.44 274.667 247.52 273.907 247.68 273.08C247.867 272.227 248.107 271.347 248.4 270.44C248.133 270.333 247.853 270.253 247.56 270.2C247.293 270.12 247.013 270.053 246.72 270C246.053 269.84 245.72 269.52 245.72 269.04C245.72 268.667 245.907 268.293 246.28 267.92C246.68 267.547 247.16 267.333 247.72 267.28C247.8 267.28 247.867 267.28 247.92 267.28C248 267.253 248.08 267.24 248.16 267.24C248.267 267.24 248.373 267.253 248.48 267.28C248.587 267.28 248.693 267.293 248.8 267.32H249.56C250.147 265.907 250.747 264.56 251.36 263.28C252 261.973 252.587 260.84 253.12 259.88C253.68 258.893 254.08 258.2 254.32 257.8C255.093 256.52 255.88 255.587 256.68 255C257.48 254.387 258.587 254.08 260 254.08C260.773 254.08 261.427 254.147 261.96 254.28C262.52 254.413 262.8 254.587 262.8 254.8C262.8 254.88 262.733 254.973 262.6 255.08C262.2 255.347 261.707 255.88 261.12 256.68C260.533 257.48 259.88 258.453 259.16 259.6C258.467 260.747 257.747 262 257 263.36C256.28 264.72 255.573 266.093 254.88 267.48L259.24 267.56C259.827 266.12 260.44 264.733 261.08 263.4C261.747 262.04 262.36 260.853 262.92 259.84C263.507 258.827 263.92 258.12 264.16 257.72C264.933 256.467 265.693 255.56 266.44 255C267.187 254.413 268.253 254.12 269.64 254.12C270.36 254.12 270.987 254.187 271.52 254.32C272.08 254.427 272.36 254.587 272.36 254.8C272.36 254.88 272.293 254.973 272.16 255.08C271.733 255.4 271.16 256.067 270.44 257.08C269.747 258.067 268.973 259.267 268.12 260.68C267.293 262.093 266.467 263.6 265.64 265.2C264.84 266.8 264.093 268.373 263.4 269.92C262.733 271.467 262.187 272.88 261.76 274.16C261.36 275.413 261.16 276.4 261.16 277.12C261.16 277.493 261.24 277.787 261.4 278C261.453 278.107 261.48 278.187 261.48 278.24C261.48 278.32 261.44 278.373 261.36 278.4C261.28 278.453 261.173 278.44 261.04 278.36C260.853 278.253 260.6 278.173 260.28 278.12C259.96 278.067 259.653 278 259.36 277.92C259.333 277.947 259.253 277.933 259.12 277.88C258.827 277.773 258.573 277.627 258.36 277.44C258.147 277.253 257.973 277.04 257.84 276.8C257.173 276.187 256.36 275.453 255.4 274.6C254.467 273.72 253.56 272.973 252.68 272.36C252.227 273.507 251.853 274.547 251.56 275.48C251.293 276.413 251.16 277.16 251.16 277.72C251.16 278.147 251.24 278.44 251.4 278.6C251.453 278.707 251.48 278.787 251.48 278.84C251.48 278.92 251.44 278.973 251.36 279C251.28 279.053 251.173 279.04 251.04 278.96ZM257.44 275C257.413 274.147 257.52 273.173 257.76 272.08C258.027 270.987 258.373 269.867 258.8 268.72C257.307 268.72 255.813 268.68 254.32 268.6L253.6 270.2C254.427 271.027 255.173 271.88 255.84 272.76C256.507 273.64 257.04 274.387 257.44 275Z" fill="white"/>
<path d="M280.96 262.04C281.2 262.147 281.507 262.24 281.88 262.32C282.253 262.373 282.587 262.44 282.88 262.52C283.467 262.733 283.893 263.107 284.16 263.64C284.427 264.2 284.56 264.867 284.56 265.64C284.56 266.333 284.48 267.093 284.32 267.92C284.133 268.773 283.893 269.653 283.6 270.56C283.867 270.667 284.147 270.747 284.44 270.8C284.707 270.88 284.987 270.947 285.28 271C285.947 271.16 286.28 271.48 286.28 271.96C286.28 272.333 286.093 272.707 285.72 273.08C285.32 273.453 284.84 273.667 284.28 273.72C284.2 273.72 284.133 273.72 284.08 273.72C284 273.747 283.92 273.76 283.84 273.76C283.733 273.76 283.627 273.747 283.52 273.72C283.413 273.72 283.307 273.707 283.2 273.68L282.44 273.68C281.853 275.093 281.253 276.44 280.64 277.72C280 279.027 279.413 280.16 278.88 281.12C278.32 282.107 277.92 282.8 277.68 283.2C276.907 284.48 276.12 285.413 275.32 286C274.52 286.613 273.413 286.92 272 286.92C271.227 286.92 270.573 286.853 270.04 286.72C269.48 286.587 269.2 286.413 269.2 286.2C269.2 286.12 269.267 286.027 269.4 285.92C269.8 285.653 270.293 285.12 270.88 284.32C271.467 283.52 272.12 282.547 272.84 281.4C273.533 280.253 274.253 279 275 277.64C275.72 276.28 276.427 274.907 277.12 273.52L272.76 273.44C272.173 274.88 271.56 276.267 270.92 277.6C270.253 278.96 269.64 280.147 269.08 281.16C268.493 282.173 268.08 282.88 267.84 283.28C267.067 284.533 266.307 285.44 265.56 286C264.813 286.587 263.747 286.88 262.36 286.88C261.64 286.88 261.013 286.813 260.48 286.68C259.92 286.573 259.64 286.413 259.64 286.2C259.64 286.12 259.707 286.027 259.84 285.92C260.267 285.6 260.84 284.933 261.56 283.92C262.253 282.933 263.027 281.733 263.88 280.32C264.707 278.907 265.533 277.4 266.36 275.8C267.16 274.2 267.907 272.627 268.6 271.08C269.267 269.533 269.813 268.12 270.24 266.84C270.64 265.587 270.84 264.6 270.84 263.88C270.84 263.507 270.76 263.213 270.6 263C270.547 262.893 270.52 262.813 270.52 262.76C270.52 262.68 270.56 262.627 270.64 262.6C270.72 262.547 270.827 262.56 270.96 262.64C271.147 262.747 271.4 262.827 271.72 262.88C272.04 262.933 272.347 263 272.64 263.08C272.667 263.053 272.747 263.067 272.88 263.12C273.173 263.227 273.427 263.373 273.64 263.56C273.853 263.747 274.027 263.96 274.16 264.2C274.827 264.813 275.64 265.547 276.6 266.4C277.533 267.28 278.44 268.027 279.32 268.64C279.773 267.493 280.147 266.453 280.44 265.52C280.707 264.587 280.84 263.84 280.84 263.28C280.84 262.853 280.76 262.56 280.6 262.4C280.547 262.293 280.52 262.213 280.52 262.16C280.52 262.08 280.56 262.027 280.64 262C280.72 261.947 280.827 261.96 280.96 262.04ZM274.56 266C274.587 266.853 274.48 267.827 274.24 268.92C273.973 270.013 273.627 271.133 273.2 272.28C274.693 272.28 276.187 272.32 277.68 272.4L278.4 270.8C277.573 269.973 276.827 269.12 276.16 268.24C275.493 267.36 274.96 266.613 274.56 266Z" fill="white"/>
<defs>
<filter id="filter0_f_66_675" x="0" y="0" width="537" height="537" filterUnits="userSpaceOnUse" color-interpolation-filters="sRGB">
<feFlood flood-opacity="0" result="BackgroundImageFix"/>
<feBlend mode="normal" in="SourceGraphic" in2="BackgroundImageFix" result="shape"/>
<feGaussianBlur stdDeviation="100" result="effect1_foregroundBlur_66_675"/>
</filter>
</defs>
</svg>
