<svg width="150" height="30" viewBox="0 0 150 30" fill="none" xmlns="http://www.w3.org/2000/svg">
<g clip-path="url(#clip0_44_334)">
<path d="M28.354 19.7955C28.354 20.7986 28.3088 21.3913 28.1732 21.6192C28.0375 21.8472 27.7662 21.984 27.3139 21.984C26.8617 21.984 26.5452 21.8472 26.4095 21.5281C26.2739 21.2545 26.1834 20.5706 26.1834 19.5676C26.1834 18.7013 26.2738 18.0174 26.4547 17.5159C26.6356 17.06 27.2687 16.4673 28.3993 15.7378V19.7955M26.1834 10.9961C26.1834 9.90192 26.2286 9.21803 26.3643 8.94447C26.5 8.67092 26.7713 8.53414 27.2235 8.53414C27.6305 8.53414 27.947 8.67092 28.1279 8.99006C28.3088 9.30921 28.3993 9.9931 28.3993 10.9961C28.3993 11.8168 28.3088 12.3639 28.1732 12.6375C27.9923 12.911 26.7713 13.4126 24.465 14.1876C22.2943 14.9171 20.9377 15.5098 20.395 16.0569C19.8524 16.604 19.5811 17.6071 19.5811 19.0661V20.7074C19.5811 22.7135 20.0785 23.9901 21.1186 24.5828C22.1587 25.1755 23.2892 25.449 24.5102 25.449C25.4599 25.449 26.2738 25.2667 26.9522 24.9019C27.6305 24.5372 28.1732 24.0357 28.6254 23.3062V25.0843H35.4991V15.2363C35.4991 11.9992 35.3634 9.85632 35.1373 8.80769C34.9112 7.75906 34.1876 6.8928 32.9666 6.16332C31.7457 5.43383 29.9368 5.06909 27.5853 5.06909C25.5955 5.06909 23.9675 5.38824 22.7466 6.02654C21.4804 6.66484 20.6664 7.39432 20.2594 8.21499C19.8524 9.03566 19.6263 9.67395 19.6263 11.2241V12.0904H26.2738V10.9961H26.1834Z" fill="white"/>
<path d="M44.9953 5.43383V7.30313C45.5379 6.57365 46.2162 5.98095 46.9398 5.6162C47.7086 5.25146 48.5678 5.06909 49.5174 5.06909C51.4167 5.06909 52.909 5.79857 53.9944 7.30313C54.5822 6.57365 55.2606 5.98095 55.9841 5.6162C56.7077 5.25146 57.5669 5.06909 58.4713 5.06909C59.6471 5.06909 60.6419 5.29706 61.4559 5.79857C62.2247 6.30009 62.7673 6.8928 62.9482 7.62228C63.1743 8.35177 63.2648 9.49158 63.2648 11.1329V25.0843H56.3911V12.2727C56.3911 10.5858 56.3459 9.58277 56.2102 9.17244C56.0746 8.7621 55.758 8.57973 55.3058 8.57973C54.8083 8.57973 54.4918 8.7621 54.3561 9.17244C54.2205 9.58277 54.13 10.6314 54.13 12.2727V25.0843H47.2563V12.5919C47.2563 10.677 47.2111 9.53718 47.0755 9.12684C46.985 8.71651 46.6685 8.53414 46.171 8.53414C45.8545 8.53414 45.5831 8.62532 45.357 8.85329C45.1309 9.03566 44.9953 9.30921 44.9953 9.58277C44.95 9.85633 44.95 10.4946 44.95 11.4521V25.0843H38.1216V5.43383H44.9953Z" fill="white"/>
<path d="M72.6259 12.5918V10.9505C72.6259 9.85626 72.6711 9.17237 72.8067 8.89882C72.9424 8.67085 73.2137 8.53408 73.7564 8.53408C74.1634 8.53408 74.4347 8.67085 74.5704 8.99C74.706 9.26356 74.7513 9.94745 74.7513 10.9505V12.5462H72.6259M81.8058 13.0022C81.8058 11.0873 81.5345 9.6283 81.0371 8.53408C80.4944 7.48544 79.6352 6.61918 78.3238 5.98088C77.0123 5.34259 75.3844 5.02344 73.3946 5.02344C71.7666 5.02344 70.3196 5.29699 69.0986 5.79851C67.8324 6.34563 66.9732 7.07511 66.3853 8.07815C65.8426 9.08119 65.5713 10.449 65.5713 12.1359V17.8806C65.5713 19.3395 65.707 20.4794 65.9331 21.2544C66.1592 22.0295 66.6114 22.7134 67.2445 23.3517C67.8776 23.99 68.782 24.4915 69.9126 24.8563C71.0431 25.221 72.3545 25.4034 73.8468 25.4034C75.3844 25.4034 76.6506 25.221 77.6907 24.8563C78.7308 24.4915 79.5448 23.9444 80.2231 23.2149C80.9014 22.4854 81.3084 21.8016 81.4893 21.1177C81.6702 20.4794 81.7606 19.5219 81.7606 18.3365V17.1511H75.0678V19.4307C75.0678 20.3882 74.9774 21.0721 74.7965 21.3912C74.6156 21.7104 74.2538 21.8927 73.7112 21.8927C73.259 21.8927 72.9876 21.756 72.8067 21.528C72.6711 21.2544 72.5806 20.7073 72.5806 19.7955V15.5554H81.7606V13.0022H81.8058Z" fill="white"/>
<path d="M109.979 2.24243V4.88681H112.24V7.34881H109.979V19.4765C109.979 20.7531 110.069 21.4826 110.205 21.6649C110.341 21.8017 111.019 21.8929 112.195 21.8929V25.0844H109.346C107.718 25.0844 106.994 25.0388 106.316 24.902C105.638 24.8108 105.004 24.5373 104.507 24.1269C103.964 23.7166 103.648 23.2151 103.512 22.7136C103.376 22.1664 103.331 20.9354 103.331 18.975V7.39441H101.975V4.9324H103.331V2.24243H109.979Z" fill="white"/>
<path d="M122.596 19.9323C122.596 20.7986 122.505 21.3457 122.369 21.5736C122.234 21.8472 121.962 21.9384 121.51 21.9384C121.103 21.9384 120.832 21.8016 120.651 21.5281C120.515 21.2545 120.425 20.6618 120.425 19.7043V10.8594C120.425 9.85633 120.515 9.21803 120.651 8.94447C120.787 8.67092 121.103 8.53414 121.51 8.53414C121.917 8.53414 122.234 8.67092 122.369 8.94447C122.505 9.21803 122.55 9.85633 122.55 10.8594V19.9323M129.288 9.21803C129.062 8.53414 128.655 7.85025 128.022 7.21195C127.389 6.57365 126.53 6.02654 125.399 5.6618C124.269 5.25146 122.912 5.06909 121.284 5.06909C119.385 5.06909 117.847 5.38824 116.626 5.98095C115.405 6.61924 114.591 7.43991 114.094 8.44295C113.642 9.49158 113.416 10.905 113.416 12.7287V17.7895C113.416 19.4764 113.551 20.7074 113.823 21.5736C114.094 22.3943 114.501 23.1238 115.089 23.7165C115.677 24.3092 116.536 24.7195 117.621 25.0387C118.706 25.3123 120.018 25.4946 121.601 25.4946C123.002 25.4946 124.269 25.3123 125.309 24.9931C126.394 24.6284 127.253 24.1268 127.977 23.3974C128.655 22.6679 129.107 21.8928 129.334 21.0721C129.56 20.2515 129.65 18.9293 129.65 17.1512V12.3183C129.65 10.9506 129.514 9.90192 129.288 9.21803Z" fill="white"/>
<path d="M99.6229 13.7317C98.7637 12.6375 96.7288 11.2241 93.4276 9.49158C92.297 8.89888 91.5735 8.39736 91.3474 7.98702C91.0761 7.57669 90.9404 6.93839 90.9404 6.11772C90.9404 5.47942 91.0308 4.97791 91.2569 4.70435C91.483 4.3852 91.7996 4.24842 92.2518 4.24842C92.6588 4.24842 92.9301 4.3852 93.111 4.61316C93.2919 4.84113 93.3824 5.38824 93.3824 6.2545V8.07821H100.211V7.07517C100.211 5.11468 99.9847 3.70131 99.5325 2.88064C99.0803 2.05997 98.2211 1.37608 96.8644 0.828969C95.5078 0.281857 93.8798 0.00830078 91.9805 0.00830078C90.2168 0.00830078 88.7245 0.236264 87.5035 0.737784C86.2826 1.2393 85.3781 1.92319 84.8355 2.78946C84.2928 3.65572 84.0215 5.06909 84.0215 6.98398C84.0215 8.30617 84.2024 9.4004 84.6094 10.2211C85.0164 11.0873 85.4686 11.7256 86.1017 12.2271C86.6896 12.7287 87.9105 13.4581 89.7194 14.5524C91.5283 15.601 92.704 16.3761 93.1562 16.832C93.6085 17.2879 93.8346 18.2454 93.8346 19.7043C93.8346 20.3426 93.6989 20.8442 93.4728 21.2089C93.2467 21.5281 92.8849 21.7104 92.3875 21.7104C91.89 21.7104 91.5735 21.5736 91.3474 21.3001C91.1665 21.0265 91.076 20.4338 91.076 19.4764V17.7439H84.2476V18.6101C84.2476 20.4794 84.4737 21.3913 84.8807 22.3943C85.3329 23.3974 86.2373 24.218 87.6392 24.9019C89.0411 25.5402 90.7143 25.8594 92.704 25.8594C94.5129 25.8594 96.0504 25.5858 97.4071 24.9931C98.7637 24.446 99.6682 23.7165 100.166 22.8958C100.618 22.0752 100.889 20.753 100.889 18.9749C100.889 16.5585 100.482 14.8259 99.6229 13.7317Z" fill="white"/>
<path d="M140.639 19.5676C140.639 20.6163 140.594 21.3002 140.458 21.5737C140.368 21.8473 140.051 21.984 139.644 21.984C139.192 21.984 138.876 21.8473 138.74 21.5281C138.604 21.209 138.514 20.4795 138.514 19.2941V11.133C138.514 9.99317 138.559 9.26368 138.695 8.99013C138.83 8.67098 139.147 8.5342 139.599 8.5342C140.051 8.5342 140.368 8.67098 140.458 8.89894C140.549 9.1725 140.594 9.90198 140.594 11.0874V19.5676M132.092 5.20593V30.0084H138.559V23.3518C139.192 24.0357 139.87 24.5372 140.594 24.902C141.363 25.2667 142.177 25.4035 143.036 25.4035C144.121 25.4035 145.071 25.1755 145.84 24.7196C146.608 24.2637 147.151 23.671 147.377 22.8959C147.649 22.1208 147.739 20.8898 147.739 19.0661V10.8594C147.739 9.30927 147.649 8.21505 147.422 7.57675C147.242 6.93845 146.744 6.34575 145.93 5.84423C145.116 5.34271 144.166 5.11475 143.081 5.11475C142.177 5.11475 141.363 5.29712 140.594 5.61627C139.825 5.98101 139.147 6.48253 138.514 7.16642V5.20593H132.092Z" fill="white"/>
<path d="M17.139 9.67395H9.76786V7.43991C9.76786 6.02654 9.67742 5.11468 9.54175 4.79553C9.40609 4.43079 9.08954 4.24842 8.54688 4.24842C8.09466 4.24842 7.77811 4.3852 7.59723 4.70435C7.41634 5.0235 7.37112 5.79857 7.37112 7.07517V18.9749C7.37112 20.0691 7.46156 20.8442 7.59723 21.1633C7.77811 21.5281 8.09466 21.7104 8.5921 21.7104C9.13476 21.7104 9.49653 21.5281 9.67742 21.1177C9.8583 20.7074 9.94875 19.9323 9.94875 18.7925V15.8746H8.50166V12.7287H17.139V25.449H12.3455L11.8028 23.6709C11.3054 24.446 10.6723 24.9931 9.90353 25.3578C9.13476 25.7226 8.23033 25.905 7.19023 25.905C5.96925 25.905 4.79349 25.6314 3.70817 25.1299C2.62285 24.6284 1.80886 23.9445 1.2662 23.1694C0.723545 22.3943 0.361773 21.5736 0.226108 20.7074C0.0904432 19.8411 0 18.5645 0 16.832V9.49158C0 7.12076 0.135665 5.38824 0.452216 4.33961C0.723545 3.24538 1.58276 2.28794 2.98462 1.37608C4.34127 0.464228 6.15014 0.00830078 8.32077 0.00830078C10.4914 0.00830078 12.255 0.373042 13.7021 1.19371C15.1492 1.96879 16.0537 2.88064 16.5059 3.97487C16.9581 5.0235 17.139 6.57365 17.139 8.62532" fill="white"/>
<path d="M149.141 5.11475C149.593 5.11475 150 5.47949 150 5.98101C150 6.48253 149.593 6.84727 149.141 6.84727C148.689 6.84727 148.282 6.48253 148.282 5.98101C148.237 5.47949 148.644 5.11475 149.141 5.11475ZM149.141 6.71049C149.548 6.71049 149.865 6.39134 149.865 5.98101C149.865 5.57067 149.548 5.25152 149.141 5.25152C148.734 5.25152 148.417 5.57067 148.417 5.98101C148.417 6.39134 148.734 6.71049 149.141 6.71049ZM148.779 5.47949H149.186C149.412 5.47949 149.548 5.57067 149.548 5.75304C149.548 5.93542 149.412 6.0266 149.277 6.0266L149.548 6.48253H149.367L149.096 6.0266H148.915V6.48253H148.779V5.47949ZM149.367 5.75304C149.367 5.66186 149.277 5.61627 149.186 5.61627H149.141H148.915V5.93541H149.096C149.231 5.93541 149.367 5.93542 149.367 5.75304Z" fill="white"/>
</g>
<defs>
<clipPath id="clip0_44_334">
<rect width="150" height="30" fill="white" transform="translate(0 0.00830078)"/>
</clipPath>
</defs>
</svg>
