<svg width="64" height="64" viewBox="0 0 64 64" fill="none" xmlns="http://www.w3.org/2000/svg">
<circle cx="32" cy="32" r="32" fill="#1A3B9C"/>
<path d="M17.04 39.96C16.8 39.8533 16.4933 39.76 16.12 39.68C15.7467 39.6267 15.4133 39.56 15.12 39.48C14.5333 39.2667 14.1067 38.8933 13.84 38.36C13.5733 37.8 13.44 37.1333 13.44 36.36C13.44 35.6667 13.52 34.9067 13.68 34.08C13.8667 33.2267 14.1067 32.3467 14.4 31.44C14.1333 31.3333 13.8533 31.2533 13.56 31.2C13.2933 31.12 13.0133 31.0533 12.72 31C12.0533 30.84 11.72 30.52 11.72 30.04C11.72 29.6667 11.9067 29.2933 12.28 28.92C12.68 28.5467 13.16 28.3333 13.72 28.28C13.8 28.28 13.8667 28.28 13.92 28.28C14 28.2533 14.08 28.24 14.16 28.24C14.2667 28.24 14.3733 28.2533 14.48 28.28C14.5867 28.28 14.6933 28.2933 14.8 28.32H15.56C16.1467 26.9067 16.7467 25.56 17.36 24.28C18 22.9733 18.5867 21.84 19.12 20.88C19.68 19.8933 20.08 19.2 20.32 18.8C21.0933 17.52 21.88 16.5867 22.68 16C23.48 15.3867 24.5867 15.08 26 15.08C26.7733 15.08 27.4267 15.1467 27.96 15.28C28.52 15.4133 28.8 15.5867 28.8 15.8C28.8 15.88 28.7333 15.9733 28.6 16.08C28.2 16.3467 27.7067 16.88 27.12 17.68C26.5333 18.48 25.88 19.4533 25.16 20.6C24.4667 21.7467 23.7467 23 23 24.36C22.28 25.72 21.5733 27.0933 20.88 28.48L25.24 28.56C25.8267 27.12 26.44 25.7333 27.08 24.4C27.7467 23.04 28.36 21.8533 28.92 20.84C29.5067 19.8267 29.92 19.12 30.16 18.72C30.9333 17.4667 31.6933 16.56 32.44 16C33.1867 15.4133 34.2533 15.12 35.64 15.12C36.36 15.12 36.9867 15.1867 37.52 15.32C38.08 15.4267 38.36 15.5867 38.36 15.8C38.36 15.88 38.2933 15.9733 38.16 16.08C37.7333 16.4 37.16 17.0667 36.44 18.08C35.7467 19.0667 34.9733 20.2667 34.12 21.68C33.2933 23.0933 32.4667 24.6 31.64 26.2C30.84 27.8 30.0933 29.3733 29.4 30.92C28.7333 32.4667 28.1867 33.88 27.76 35.16C27.36 36.4133 27.16 37.4 27.16 38.12C27.16 38.4933 27.24 38.7867 27.4 39C27.4533 39.1067 27.48 39.1867 27.48 39.24C27.48 39.32 27.44 39.3733 27.36 39.4C27.28 39.4533 27.1733 39.44 27.04 39.36C26.8533 39.2533 26.6 39.1733 26.28 39.12C25.96 39.0667 25.6533 39 25.36 38.92C25.3333 38.9467 25.2533 38.9333 25.12 38.88C24.8267 38.7733 24.5733 38.6267 24.36 38.44C24.1467 38.2533 23.9733 38.04 23.84 37.8C23.1733 37.1867 22.36 36.4533 21.4 35.6C20.4667 34.72 19.56 33.9733 18.68 33.36C18.2267 34.5067 17.8533 35.5467 17.56 36.48C17.2933 37.4133 17.16 38.16 17.16 38.72C17.16 39.1467 17.24 39.44 17.4 39.6C17.4533 39.7067 17.48 39.7867 17.48 39.84C17.48 39.92 17.44 39.9733 17.36 40C17.28 40.0533 17.1733 40.04 17.04 39.96ZM23.44 36C23.4133 35.1467 23.52 34.1733 23.76 33.08C24.0267 31.9867 24.3733 30.8667 24.8 29.72C23.3067 29.72 21.8133 29.68 20.32 29.6L19.6 31.2C20.4267 32.0267 21.1733 32.88 21.84 33.76C22.5067 34.64 23.04 35.3867 23.44 36Z" fill="white"/>
<path d="M46.96 23.04C47.2 23.1467 47.5067 23.24 47.88 23.32C48.2533 23.3733 48.5867 23.44 48.88 23.52C49.4667 23.7333 49.8933 24.1067 50.16 24.64C50.4267 25.2 50.56 25.8667 50.56 26.64C50.56 27.3333 50.48 28.0933 50.32 28.92C50.1333 29.7733 49.8933 30.6533 49.6 31.56C49.8667 31.6667 50.1467 31.7467 50.44 31.8C50.7067 31.88 50.9867 31.9467 51.28 32C51.9467 32.16 52.28 32.48 52.28 32.96C52.28 33.3333 52.0933 33.7067 51.72 34.08C51.32 34.4533 50.84 34.6667 50.28 34.72C50.2 34.72 50.1333 34.72 50.08 34.72C50 34.7467 49.92 34.76 49.84 34.76C49.7333 34.76 49.6267 34.7467 49.52 34.72C49.4133 34.72 49.3067 34.7067 49.2 34.68L48.44 34.68C47.8533 36.0933 47.2533 37.44 46.64 38.72C46 40.0267 45.4133 41.16 44.88 42.12C44.32 43.1067 43.92 43.8 43.68 44.2C42.9067 45.48 42.12 46.4133 41.32 47C40.52 47.6133 39.4133 47.92 38 47.92C37.2267 47.92 36.5733 47.8533 36.04 47.72C35.48 47.5867 35.2 47.4133 35.2 47.2C35.2 47.12 35.2667 47.0267 35.4 46.92C35.8 46.6533 36.2933 46.12 36.88 45.32C37.4667 44.52 38.12 43.5467 38.84 42.4C39.5333 41.2533 40.2533 40 41 38.64C41.72 37.28 42.4267 35.9067 43.12 34.52L38.76 34.44C38.1733 35.88 37.56 37.2667 36.92 38.6C36.2533 39.96 35.64 41.1467 35.08 42.16C34.4933 43.1733 34.08 43.88 33.84 44.28C33.0667 45.5333 32.3067 46.44 31.56 47C30.8133 47.5867 29.7467 47.88 28.36 47.88C27.64 47.88 27.0133 47.8133 26.48 47.68C25.92 47.5733 25.64 47.4133 25.64 47.2C25.64 47.12 25.7067 47.0267 25.84 46.92C26.2667 46.6 26.84 45.9333 27.56 44.92C28.2533 43.9333 29.0267 42.7333 29.88 41.32C30.7067 39.9067 31.5333 38.4 32.36 36.8C33.16 35.2 33.9067 33.6267 34.6 32.08C35.2667 30.5333 35.8133 29.12 36.24 27.84C36.64 26.5867 36.84 25.6 36.84 24.88C36.84 24.5067 36.76 24.2133 36.6 24C36.5467 23.8933 36.52 23.8133 36.52 23.76C36.52 23.68 36.56 23.6267 36.64 23.6C36.72 23.5467 36.8267 23.56 36.96 23.64C37.1467 23.7467 37.4 23.8267 37.72 23.88C38.04 23.9333 38.3467 24 38.64 24.08C38.6667 24.0533 38.7467 24.0667 38.88 24.12C39.1733 24.2267 39.4267 24.3733 39.64 24.56C39.8533 24.7467 40.0267 24.96 40.16 25.2C40.8267 25.8133 41.64 26.5467 42.6 27.4C43.5333 28.28 44.44 29.0267 45.32 29.64C45.7733 28.4933 46.1467 27.4533 46.44 26.52C46.7067 25.5867 46.84 24.84 46.84 24.28C46.84 23.8533 46.76 23.56 46.6 23.4C46.5467 23.2933 46.52 23.2133 46.52 23.16C46.52 23.08 46.56 23.0267 46.64 23C46.72 22.9467 46.8267 22.96 46.96 23.04ZM40.56 27C40.5867 27.8533 40.48 28.8267 40.24 29.92C39.9733 31.0133 39.6267 32.1333 39.2 33.28C40.6933 33.28 42.1867 33.32 43.68 33.4L44.4 31.8C43.5733 30.9733 42.8267 30.12 42.16 29.24C41.4933 28.36 40.96 27.6133 40.56 27Z" fill="white"/>
</svg>
