<svg width="150" height="42" viewBox="0 0 150 42" fill="none" xmlns="http://www.w3.org/2000/svg">
<g clip-path="url(#clip0_44_345)">
<path fill-rule="evenodd" clip-rule="evenodd" d="M36.2244 17.8544C35.8464 23.342 31.4365 28.3251 25.8926 28.5144V24.3513C25.8926 20.5667 23.1836 17.2867 19.4667 16.5297L5.60699 13.8174V4.54513C5.60699 2.02205 7.87494 0.129741 10.3949 0.634356L24.6956 3.40974C32.5075 5.11282 36.7284 11.1682 36.2244 17.8544ZM10.5209 30.9744L2.33105 29.3974C1.13408 29.1451 0.0631 30.0913 0.0631 31.2897V36.9667C0.000101235 38.3544 1.00808 39.6159 2.39405 39.8682L10.5839 41.4451C11.7809 41.6974 12.8518 40.7513 12.8518 39.5528V33.8759C12.9148 32.4882 11.9069 31.2897 10.5209 30.9744ZM18.7737 19.6836L6.23698 17.2236C4.41001 16.8451 2.77205 18.2328 2.77205 20.1251V26.3067H2.83504L11.0249 27.8836C13.8598 28.4513 15.9388 30.9744 15.9388 33.8759V35.1374L19.0887 35.7682C20.9157 36.1467 22.5537 34.759 22.5537 32.8667V24.4144C22.6796 22.0805 21.0417 20.1251 18.7737 19.6836Z" fill="white"/>
<path fill-rule="evenodd" clip-rule="evenodd" d="M113.65 21.4498C115.855 21.4498 117.808 22.5851 118.942 24.2882L123.604 21.5128C121.525 18.2328 117.871 16.0251 113.65 16.0251C107.161 16.0251 101.869 21.3236 101.869 27.8205C101.869 34.3175 107.161 39.6159 113.65 39.6159C117.808 39.6159 121.462 37.4082 123.604 34.1913L118.879 31.479C117.745 33.119 115.855 34.1913 113.65 34.1913C110.122 34.1913 107.287 31.3528 107.287 27.8205C107.287 24.2882 110.122 21.4498 113.65 21.4498Z" fill="white"/>
<path fill-rule="evenodd" clip-rule="evenodd" d="M139.227 15.962C136.329 15.962 133.746 17.0974 131.793 18.9266V5.99585H126.375V38.7328H131.793V27.8205C131.793 24.2882 134.628 21.4497 138.156 21.4497C141.684 21.4497 144.519 24.2882 144.519 27.8205V38.7328H149.937V26.7482C150 20.8189 145.149 15.962 139.227 15.962Z" fill="white"/>
<path fill-rule="evenodd" clip-rule="evenodd" d="M97.0181 34.1282H96.3881C96.1991 34.1282 96.0101 34.1282 95.8211 34.0651C94.5611 33.8128 93.6161 32.6774 93.6161 31.4158V22.3328H99.034V16.9082H93.6161V5.99585H88.1982V31.4789C88.1982 36.0205 91.8522 39.6789 96.3881 39.6789C98.467 39.6789 100.294 38.922 101.743 37.6605L99.097 33.182C98.656 33.7497 97.9 34.1282 97.0181 34.1282Z" fill="white"/>
<path d="M81.8985 12.0512C83.5994 12.0512 84.9224 10.6635 84.9224 9.02354C84.9224 7.38354 83.5364 5.99585 81.8985 5.99585C80.1975 5.99585 78.8745 7.38354 78.8745 9.02354C78.8745 10.6635 80.1975 12.0512 81.8985 12.0512Z" fill="white"/>
<path d="M84.6073 16.9082H79.1895V38.7328H84.6073V16.9082Z" fill="white"/>
<path fill-rule="evenodd" clip-rule="evenodd" d="M63.2508 5.99585H52.793V38.7328H58.2109V32.362H63.1878C70.4326 32.362 76.3545 26.4328 76.3545 19.1789C76.4175 11.9251 70.4956 5.99585 63.2508 5.99585ZM63.2508 26.8743H58.2739V11.4205H63.2508C67.5347 11.4205 70.9996 14.8897 70.9996 19.1789C70.9996 23.4682 67.5347 26.8743 63.2508 26.8743Z" fill="white"/>
</g>
<defs>
<clipPath id="clip0_44_345">
<rect width="150" height="41" fill="white" transform="translate(0 0.508301)"/>
</clipPath>
</defs>
</svg>
