<svg width="48" height="52" viewBox="0 0 48 52" fill="none" xmlns="http://www.w3.org/2000/svg">
<circle cx="24" cy="26" r="24" fill="#1A3B9C"/>
<path d="M10.832 32.768C10.64 32.6827 10.3947 32.608 10.096 32.544C9.79733 32.5013 9.53067 32.448 9.296 32.384C8.82667 32.2133 8.48533 31.9147 8.272 31.488C8.05867 31.04 7.952 30.5067 7.952 29.888C7.952 29.3333 8.016 28.7253 8.144 28.064C8.29333 27.3813 8.48533 26.6773 8.72 25.952C8.50667 25.8667 8.28267 25.8027 8.048 25.76C7.83467 25.696 7.61067 25.6427 7.376 25.6C6.84267 25.472 6.576 25.216 6.576 24.832C6.576 24.5333 6.72533 24.2347 7.024 23.936C7.344 23.6373 7.728 23.4667 8.176 23.424C8.24 23.424 8.29333 23.424 8.336 23.424C8.4 23.4027 8.464 23.392 8.528 23.392C8.61333 23.392 8.69867 23.4027 8.784 23.424C8.86933 23.424 8.95467 23.4347 9.04 23.456H9.648C10.1173 22.3253 10.5973 21.248 11.088 20.224C11.6 19.1787 12.0693 18.272 12.496 17.504C12.944 16.7147 13.264 16.16 13.456 15.84C14.0747 14.816 14.704 14.0693 15.344 13.6C15.984 13.1093 16.8693 12.864 18 12.864C18.6187 12.864 19.1413 12.9173 19.568 13.024C20.016 13.1307 20.24 13.2693 20.24 13.44C20.24 13.504 20.1867 13.5787 20.08 13.664C19.76 13.8773 19.3653 14.304 18.896 14.944C18.4267 15.584 17.904 16.3627 17.328 17.28C16.7733 18.1973 16.1973 19.2 15.6 20.288C15.024 21.376 14.4587 22.4747 13.904 23.584L17.392 23.648C17.8613 22.496 18.352 21.3867 18.864 20.32C19.3973 19.232 19.888 18.2827 20.336 17.472C20.8053 16.6613 21.136 16.096 21.328 15.776C21.9467 14.7733 22.5547 14.048 23.152 13.6C23.7493 13.1307 24.6027 12.896 25.712 12.896C26.288 12.896 26.7893 12.9493 27.216 13.056C27.664 13.1413 27.888 13.2693 27.888 13.44C27.888 13.504 27.8347 13.5787 27.728 13.664C27.3867 13.92 26.928 14.4533 26.352 15.264C25.7973 16.0533 25.1787 17.0133 24.496 18.144C23.8347 19.2747 23.1733 20.48 22.512 21.76C21.872 23.04 21.2747 24.2987 20.72 25.536C20.1867 26.7733 19.7493 27.904 19.408 28.928C19.088 29.9307 18.928 30.72 18.928 31.296C18.928 31.5947 18.992 31.8293 19.12 32C19.1627 32.0853 19.184 32.1493 19.184 32.192C19.184 32.256 19.152 32.2987 19.088 32.32C19.024 32.3627 18.9387 32.352 18.832 32.288C18.6827 32.2027 18.48 32.1387 18.224 32.096C17.968 32.0533 17.7227 32 17.488 31.936C17.4667 31.9573 17.4027 31.9467 17.296 31.904C17.0613 31.8187 16.8587 31.7013 16.688 31.552C16.5173 31.4027 16.3787 31.232 16.272 31.04C15.7387 30.5493 15.088 29.9627 14.32 29.28C13.5733 28.576 12.848 27.9787 12.144 27.488C11.7813 28.4053 11.4827 29.2373 11.248 29.984C11.0347 30.7307 10.928 31.328 10.928 31.776C10.928 32.1173 10.992 32.352 11.12 32.48C11.1627 32.5653 11.184 32.6293 11.184 32.672C11.184 32.736 11.152 32.7787 11.088 32.8C11.024 32.8427 10.9387 32.832 10.832 32.768ZM15.952 29.6C15.9307 28.9173 16.016 28.1387 16.208 27.264C16.4213 26.3893 16.6987 25.4933 17.04 24.576C15.8453 24.576 14.6507 24.544 13.456 24.48L12.88 25.76C13.5413 26.4213 14.1387 27.104 14.672 27.808C15.2053 28.512 15.632 29.1093 15.952 29.6Z" fill="white"/>
<path d="M36.543 18.732C36.735 18.8173 36.9803 18.892 37.279 18.956C37.5777 18.9987 37.8443 19.052 38.079 19.116C38.5483 19.2867 38.8897 19.5853 39.103 20.012C39.3163 20.46 39.423 20.9933 39.423 21.612C39.423 22.1667 39.359 22.7747 39.231 23.436C39.0817 24.1187 38.8897 24.8227 38.655 25.548C38.8683 25.6333 39.0923 25.6973 39.327 25.74C39.5403 25.804 39.7643 25.8573 39.999 25.9C40.5323 26.028 40.799 26.284 40.799 26.668C40.799 26.9667 40.6497 27.2653 40.351 27.564C40.031 27.8627 39.647 28.0333 39.199 28.076C39.135 28.076 39.0817 28.076 39.039 28.076C38.975 28.0973 38.911 28.108 38.847 28.108C38.7617 28.108 38.6763 28.0973 38.591 28.076C38.5057 28.076 38.4203 28.0653 38.335 28.044L37.727 28.044C37.2577 29.1747 36.7777 30.252 36.287 31.276C35.775 32.3213 35.3057 33.228 34.879 33.996C34.431 34.7853 34.111 35.34 33.919 35.66C33.3003 36.684 32.671 37.4307 32.031 37.9C31.391 38.3907 30.5057 38.636 29.375 38.636C28.7563 38.636 28.2337 38.5827 27.807 38.476C27.359 38.3693 27.135 38.2307 27.135 38.06C27.135 37.996 27.1883 37.9213 27.295 37.836C27.615 37.6227 28.0097 37.196 28.479 36.556C28.9483 35.916 29.471 35.1373 30.047 34.22C30.6017 33.3027 31.1777 32.3 31.775 31.212C32.351 30.124 32.9163 29.0253 33.471 27.916L29.983 27.852C29.5137 29.004 29.023 30.1133 28.511 31.18C27.9777 32.268 27.487 33.2173 27.039 34.028C26.5697 34.8387 26.239 35.404 26.047 35.724C25.4283 36.7267 24.8203 37.452 24.223 37.9C23.6257 38.3693 22.7723 38.604 21.663 38.604C21.087 38.604 20.5857 38.5507 20.159 38.444C19.711 38.3587 19.487 38.2307 19.487 38.06C19.487 37.996 19.5403 37.9213 19.647 37.836C19.9883 37.58 20.447 37.0467 21.023 36.236C21.5777 35.4467 22.1963 34.4867 22.879 33.356C23.5403 32.2253 24.2017 31.02 24.863 29.74C25.503 28.46 26.1003 27.2013 26.655 25.964C27.1883 24.7267 27.6257 23.596 27.967 22.572C28.287 21.5693 28.447 20.78 28.447 20.204C28.447 19.9053 28.383 19.6707 28.255 19.5C28.2123 19.4147 28.191 19.3507 28.191 19.308C28.191 19.244 28.223 19.2013 28.287 19.18C28.351 19.1373 28.4363 19.148 28.543 19.212C28.6923 19.2973 28.895 19.3613 29.151 19.404C29.407 19.4467 29.6523 19.5 29.887 19.564C29.9083 19.5427 29.9723 19.5533 30.079 19.596C30.3137 19.6813 30.5163 19.7987 30.687 19.948C30.8577 20.0973 30.9963 20.268 31.103 20.46C31.6363 20.9507 32.287 21.5373 33.055 22.22C33.8017 22.924 34.527 23.5213 35.231 24.012C35.5937 23.0947 35.8923 22.2627 36.127 21.516C36.3403 20.7693 36.447 20.172 36.447 19.724C36.447 19.3827 36.383 19.148 36.255 19.02C36.2123 18.9347 36.191 18.8707 36.191 18.828C36.191 18.764 36.223 18.7213 36.287 18.7C36.351 18.6573 36.4363 18.668 36.543 18.732ZM31.423 21.9C31.4443 22.5827 31.359 23.3613 31.167 24.236C30.9537 25.1107 30.6763 26.0067 30.335 26.924C31.5297 26.924 32.7243 26.956 33.919 27.02L34.495 25.74C33.8337 25.0787 33.2363 24.396 32.703 23.692C32.1697 22.988 31.743 22.3907 31.423 21.9Z" fill="white"/>
</svg>
