<svg width="155" height="46" viewBox="0 0 155 46" fill="none" xmlns="http://www.w3.org/2000/svg">
<g clip-path="url(#clip0_51_24)">
<path d="M22.7646 18.5659C29.6167 23.7299 41.275 36.3991 37.7353 39.9594C33.7085 43.4234 28.4801 45.5082 22.7646 45.5082C17.0491 45.5082 11.7558 43.4234 7.79393 39.9594C4.22176 36.3671 15.9125 23.6978 22.6997 18.598C22.6997 18.5659 22.7646 18.5659 22.7646 18.5659Z" fill="white"/>
<path d="M34.6177 3.81194C31.1429 1.72712 27.3434 0.508301 22.7645 0.508301C18.1856 0.508301 14.3537 1.72712 10.8789 3.81194C10.814 3.81194 10.814 3.87608 10.814 3.90816C10.814 3.94023 10.8789 3.97231 10.9114 3.97231C15.3279 3.01008 22.0176 6.76275 22.6671 7.17972H22.7645C23.3815 6.79483 30.0712 3.04216 34.5202 3.97231C34.5852 3.97231 34.6177 3.97231 34.6177 3.90816C34.6177 3.84401 34.6826 3.81194 34.6177 3.81194Z" fill="white"/>
<path d="M6.81961 6.95522C6.75466 6.95522 6.75466 7.01937 6.72219 7.01937C2.56547 11.0928 0 16.7699 0 22.9923C0 28.0921 1.75361 32.839 4.64383 36.6238C4.64383 36.6879 4.70878 36.6879 4.74125 36.6879C4.8062 36.6879 4.8062 36.6238 4.74125 36.5917C3.02011 31.2033 11.9181 18.3736 16.497 13.0172L16.5619 12.9531C16.5619 12.8889 16.5619 12.8889 16.497 12.8889C9.54745 6.05715 7.2093 6.79485 6.81961 6.95522Z" fill="white"/>
<path d="M28.9995 12.8249L28.9346 12.889C28.9346 12.889 28.9346 12.9532 28.9995 12.9532C33.6109 18.3416 42.4439 31.1713 40.7552 36.4956V36.5918C40.8202 36.5918 40.8527 36.5918 40.8527 36.5277C43.7429 32.775 45.4965 27.9959 45.4965 22.8962C45.4965 16.6738 42.931 11.0287 38.7418 6.92324C38.6769 6.85909 38.6769 6.85909 38.6444 6.85909C38.2872 6.79494 35.9815 6.05724 28.9995 12.8249Z" fill="white"/>
<path d="M78.4904 36.8482H73.8141L65.728 25.8468L57.6094 36.8803H52.9331L63.3249 22.6715L53.7774 9.61731H58.4537L65.728 19.4961L73.0022 9.61731H77.6785L68.0661 22.6715L78.4904 36.8482ZM102.846 29.1184C102.846 31.4919 102.034 33.4163 100.443 34.7634C98.8518 36.1105 96.5461 36.8482 93.591 36.8482H80.7311V24.6922H74.561L77.1265 21.1961H80.7311V9.61731H93.1039C95.8967 9.61731 98.04 10.2909 99.5013 11.6059C100.995 12.9209 101.742 14.653 101.742 16.7378C101.742 19.3358 100.54 21.3564 98.1374 22.6715C99.6961 23.2488 100.833 24.1469 101.612 25.2053C102.456 26.2959 102.846 27.643 102.846 29.1184ZM84.8878 21.2602H92.7791C94.3704 21.2602 95.5719 20.9074 96.3838 20.2018C97.1956 19.5282 97.5853 18.4377 97.5853 17.0264C97.5853 15.8397 97.1956 14.8775 96.3188 14.2039C95.507 13.5304 94.3054 13.1775 92.7791 13.1775H84.8878V21.2602ZM98.6245 28.9901C98.6245 27.5788 98.1699 26.4562 97.293 25.7827C96.4487 25.045 95.1173 24.7242 93.3961 24.7242H84.8554V33.2239H93.3312C94.9874 33.2239 96.3188 32.839 97.2281 32.1654C98.1698 31.4277 98.6245 30.3693 98.6245 28.9901ZM131.229 23.2488C131.229 25.3336 130.936 27.3222 130.319 29.0222C129.702 30.7221 128.761 32.2296 127.559 33.5446C126.293 34.8596 124.864 35.8539 123.273 36.4954C121.681 37.169 119.83 37.4577 117.784 37.4577C115.771 37.4577 113.887 37.1048 112.296 36.4954C110.705 35.8219 109.276 34.8596 108.01 33.5446C106.743 32.2296 105.834 30.7221 105.217 29.0222C104.6 27.3222 104.308 25.3336 104.308 23.2488C104.308 21.164 104.6 19.1754 105.217 17.4755C105.834 15.7755 106.776 14.2039 108.01 12.8889C109.211 11.5738 110.64 10.6437 112.296 9.93805C113.887 9.32865 115.771 8.97583 117.784 8.97583C119.798 8.97583 121.616 9.32865 123.273 9.93805C124.864 10.5475 126.358 11.5738 127.559 12.8889C128.761 14.2039 129.735 15.7755 130.319 17.4755C130.904 19.1754 131.229 21.0998 131.229 23.2488ZM108.627 23.2488C108.627 26.4562 109.471 29.0222 111.16 30.8825C112.816 32.7428 114.992 33.705 117.784 33.705C120.545 33.705 122.753 32.7428 124.409 30.8825C126.065 29.0222 126.877 26.4883 126.877 23.2488C126.877 20.0093 126.065 17.4434 124.409 15.551C122.753 13.6907 120.512 12.7285 117.784 12.7285C115.057 12.7285 112.816 13.6907 111.16 15.551C109.503 17.4755 108.627 20.0093 108.627 23.2488ZM144.511 22.6715L154.123 9.61731H149.447L142.173 19.4961L134.898 9.61731H130.222L139.834 22.6715L129.41 36.8482H134.119L142.173 25.8468L150.291 36.8803H154.967L144.511 22.6715Z" fill="white"/>
</g>
<defs>
<clipPath id="clip0_51_24">
<rect width="155" height="45" fill="white" transform="translate(0 0.508301)"/>
</clipPath>
</defs>
</svg>
