<svg width="150" height="52" viewBox="0 0 150 52" fill="none" xmlns="http://www.w3.org/2000/svg">
<g clip-path="url(#clip0_51_21)">
<path d="M16.7686 26.2861L26.2009 13.6693H22.2707C20.5022 13.6693 19.3886 14.2903 18.4389 15.5324L13.4607 22.2004L8.64629 15.5324C7.72926 14.2903 6.58297 13.6693 4.81441 13.6693H0.884279L10.1856 26.2861L0 40.0143H3.73362C5.50218 40.0143 6.61572 39.3933 7.5655 38.1512L13.4607 30.3392L27.2817 49.3952C28.1659 50.6373 29.345 51.2583 31.1135 51.2583H35.1419L16.7686 26.2861ZM92.1616 40.0143H97.5V13.6693H92.1616V40.0143ZM49.8799 40.0143H55.2183V13.6693H49.8799V40.0143ZM130.71 49.2971L150 13.6693H147.118C145.349 13.6693 144.007 14.1923 143.286 15.5324L135.688 29.6201L129.105 15.5324C128.417 14.1269 127.041 13.6693 125.273 13.6693H122.489L132.642 35.1441L123.799 51.2583H126.681C128.483 51.2583 129.924 50.7026 130.71 49.2971ZM61.5721 13.6693V40.0143H66.9105V21.9389C68.5808 19.6182 70.9389 18.18 73.8865 18.18C77.8166 18.18 80.5022 20.6641 80.5022 25.6324V37.4975C80.5022 39.001 81.5502 40.0143 82.9913 40.0143H85.8406V24.6845C85.8406 17.8531 81.4847 13.1136 75.1965 13.1136C71.8232 13.1136 69.0393 14.2903 66.9105 16.2515V13.6693H61.5721ZM107.391 30.6661C107.391 36.3861 110.895 40.4719 117.216 40.4719C118.755 40.4719 120.065 40.2758 121.114 39.9489L120.033 35.3075C119.345 35.4709 118.526 35.569 117.609 35.569C115.022 35.569 112.729 34.1635 112.729 30.568V18.4088H120.197L118.035 13.6693H112.762V3.07901L107.424 5.39972V13.6693H101.79V18.4088H107.424L107.391 30.6661ZM33.4716 18.4088V39.9816H38.81V18.4088H45.655V13.6693H38.81V11.7081C38.81 7.23015 41.4956 5.72659 44.1485 5.72659C44.8362 5.72659 45.4258 5.82464 45.9498 5.98807L47.0306 1.28128C46.3428 1.01979 45.262 0.758301 43.7227 0.758301C37.107 0.758301 33.4716 5.66121 33.4716 11.6101V13.6693H30.6878L27.3144 18.4088H33.4716Z" fill="white"/>
</g>
<defs>
<clipPath id="clip0_51_21">
<rect width="150" height="50.5" fill="white" transform="translate(0 0.758301)"/>
</clipPath>
</defs>
</svg>
